<?xml version="1.0" encoding="UTF-8" standalone="no"?>
<svg
   xmlns:dc="http://purl.org/dc/elements/1.1/"
   xmlns:cc="http://creativecommons.org/ns#"
   xmlns:rdf="http://www.w3.org/1999/02/22-rdf-syntax-ns#"
   xmlns:svg="http://www.w3.org/2000/svg"
   xmlns="http://www.w3.org/2000/svg"
   xmlns:sodipodi="http://sodipodi.sourceforge.net/DTD/sodipodi-0.dtd"
   xmlns:inkscape="http://www.inkscape.org/namespaces/inkscape"
   version="1.0"
   width="128px"
   height="128px"
   viewBox="0 0 1280 1280"
   preserveAspectRatio="xMidYMid meet"
   id="svg118"
   sodipodi:docname="jk.svg"
   inkscape:version="0.92.4 (f8dce91, 2019-08-02)">
  <metadata
     id="metadata124">
    <rdf:RDF>
      <cc:Work
         rdf:about="">
        <dc:format>image/svg+xml</dc:format>
        <dc:type
           rdf:resource="http://purl.org/dc/dcmitype/StillImage" />
        <dc:title></dc:title>
      </cc:Work>
    </rdf:RDF>
  </metadata>
  <defs
     id="defs122" />
  <sodipodi:namedview
     pagecolor="#ffffff"
     bordercolor="#666666"
     borderopacity="1"
     objecttolerance="10"
     gridtolerance="10"
     guidetolerance="10"
     inkscape:pageopacity="0"
     inkscape:pageshadow="2"
     inkscape:window-width="1920"
     inkscape:window-height="1016"
     id="namedview120"
     showgrid="false"
     inkscape:zoom="4.6293397"
     inkscape:cx="26.626992"
     inkscape:cy="62.219503"
     inkscape:window-x="0"
     inkscape:window-y="27"
     inkscape:window-maximized="1"
     inkscape:current-layer="svg118" />
  <g
     id="layer101"
     fill="#000000"
     stroke="none">
    <path
       d="M167 1215 c-9 -20 -17 -37 -17 -39 0 -2 25 -20 55 -39 94 -63 89 -40 95 -457 l5 -365 48 -3 47 -3 0 354 c0 402 -3 427 -67 489 -33 31 -131 98 -145 98 -2 0 -12 -16 -21 -35z"
       id="path109" />
    <path
       d="M530 1095 l0 -65 295 0 295 0 0 65 0 65 -295 0 -295 0 0 -65z"
       id="path111" />
    <path
       d="M590 495 l0 -465 50 0 50 0 0 270 0 270 50 0 49 0 93 -130 93 -130 52 0 c29 0 53 2 53 5 0 3 -45 67 -100 144 -55 77 -100 144 -100 150 0 6 42 78 94 160 134 211 127 191 62 191 l-54 0 -97 -150 -97 -150 -49 0 -49 0 0 150 0 150 -50 0 -50 0 0 -465z"
       id="path113" />
    <path
       d="M300 115 l0 -55 50 0 50 0 0 55 0 55 -50 0 -50 0 0 -55z"
       id="path115" />
  </g>
</svg>
